<?xml version="1.0" encoding="utf-8"?>
<!-- Generator: Adobe Illustrator 27.5.0, SVG Export Plug-In . SVG Version: 6.00 Build 0)  -->
<svg version="1.1" xmlns="http://www.w3.org/2000/svg" xmlns:xlink="http://www.w3.org/1999/xlink" x="0px" y="0px"
	 viewBox="0 0 1000 800" style="enable-background:new 0 0 1000 800;" xml:space="preserve">
<g id="background">
	<rect y="0" style="fill:#8CABEF;" width="1000" height="800"/>
</g>
<g id="shadow">
	<g style="opacity:0.3;">
		<path style="fill:#FFFFFF;" d="M461.814,710.314c-23.565,0.045-47.129,0.411-70.652,2.1c-8.869,0.637-17.553,2.038-26.442,2.603
			c-17.757,1.129-35.195,3.235-53.015,4.206c-14.35,0.782-28.76,1.244-43.068,2.236c-13.415,0.93-28.265,0.716-41.577-0.821
			c-9.854-1.138-19.754-1.779-29.443-3.607c-10.839-2.045-22.614-3.507-33.907-3.454c-16.103,0.075-31.786,0.084-47.197,3.694
			c-5.41,1.267-12.032,3.351-16.14,6.011c-9.404,6.089-10.677,21.281-1.287,27.596c15.815,10.628,49.57,14.799,71.739,14.995
			c24.292,0.216,47.891-0.949,72.219-1.633c22.606-0.636,45.155-1.541,67.798-1.51c46.246,0.065,92.498,0,138.661-1.995
			c43.371-1.874,86.851-1.231,130.317-1.231c44.573,0,88.844,0.226,133.095,4.051c19.281,1.667,38.923,2.25,58.301,3.417
			c17.354,1.046,34.031-0.021,51.316-0.987c14.514-0.812,28.933-3.219,42.119-7.287c10.438-3.221,29.045-13.227,32.246-20.914
			c8.974-21.553-126.464-21.035-147.259-20.986c-23.263,0.054-46.711,0.548-69.955-0.024c-9.778-0.241-19.412-1.475-28.955-2.827
			c-9.505-1.347-19.082-1.004-28.722-1.57c-40.198-2.36-80.484-2.016-120.81-2.016C488.073,710.363,474.944,710.289,461.814,710.314
			z"/>
	</g>
</g>
<g id="object">
	<g>
		
			<rect x="302.641" y="257.977" transform="matrix(0.6274 -0.7787 0.7787 0.6274 -54.2125 406.0183)" style="fill:#F7F7F7;" width="189.069" height="3.367"/>
	</g>
	<g>
		
			<rect x="223.641" y="189.585" transform="matrix(0.2823 -0.9593 0.9593 0.2823 -132.4078 436.2205)" style="fill:#F7F7F7;" width="3.367" height="234.028"/>
	</g>
	<g>
		
			<ellipse transform="matrix(0.7071 -0.7071 0.7071 0.7071 -160.3266 160.0789)" style="fill:#D67086;" cx="113.069" cy="273.571" rx="40.092" ry="40.092"/>
	</g>
	<g>
		
			<rect x="291.095" y="96.337" transform="matrix(0.9278 -0.373 0.373 0.9278 -60.0318 124.9003)" style="fill:#F7F7F7;" width="3.368" height="242.522"/>
	</g>
	<g>
		
			<rect x="352.36" y="35.539" transform="matrix(0.3668 -0.9303 0.9303 0.3668 88.6801 421.6013)" style="fill:#F7F7F7;" width="3.367" height="220.237"/>
	</g>
	<g>
		
			<rect x="439.496" y="131.848" transform="matrix(0.8885 -0.4589 0.4589 0.8885 0.4437 268.8899)" style="fill:#F7F7F7;" width="227.971" height="3.367"/>
	</g>
	<g>
		
			<rect x="563.575" y="123.837" transform="matrix(0.507 -0.8619 0.8619 0.507 63.1403 610.4656)" style="fill:#F7F7F7;" width="3.368" height="252.393"/>
	</g>
	<g>
		
			<rect x="644.733" y="231.613" transform="matrix(0.7672 -0.6414 0.6414 0.7672 29.7691 548.6078)" style="fill:#F7F7F7;" width="251.715" height="3.368"/>
	</g>
	<g>
		
			<ellipse transform="matrix(0.7071 -0.7071 0.7071 0.7071 11.6788 380.0746)" style="fill:#D67086;" cx="464.63" cy="175.94" rx="71.009" ry="71.009"/>
	</g>
	<g>
		
			<ellipse transform="matrix(0.7071 -0.7071 0.7071 0.7071 146.0967 657.8565)" style="fill:#292949;" cx="867.151" cy="152.574" rx="49.844" ry="49.844"/>
	</g>
	<g>
		
			<ellipse transform="matrix(0.8889 -0.4581 0.4581 0.8889 -20.5628 127.6789)" style="fill:#292949;" cx="252.946" cy="106.232" rx="53.738" ry="53.738"/>
	</g>
	<g>
		
			<ellipse transform="matrix(0.1877 -0.9822 0.9822 0.1877 452.1012 709.0803)" style="fill:#474EBB;" cx="654.747" cy="81.208" rx="39.392" ry="39.391"/>
	</g>
	<g>
		
			<ellipse transform="matrix(0.7071 -0.7071 0.7071 0.7071 -8.6282 558.8399)" style="fill:#3B3387;" cx="670.265" cy="289.835" rx="105.679" ry="105.679"/>
	</g>
	<g>
		
			<ellipse transform="matrix(0.2291 -0.9734 0.9734 0.2291 -71.2541 591.1219)" style="fill:#474EBB;" cx="337.58" cy="340.547" rx="59.703" ry="59.703"/>
	</g>
	<g id="XMLID_42_">
		<g id="XMLID_44_">
			<g id="XMLID_58_">
				<g id="XMLID_60_">
					<g>
						<path style="fill:#3B3387;" d="M796.857,733.506c1.173-1.291,2.541-1.995,4.087-1.752c1.485,0.234,2.821,1.24,3.433,2.586
							c0.417,0.918,0.506,1.942,0.589,2.943c0.428,5.183,0.389,17.488-6.514,19.26c-2.901,0.744-5.302-1.317-6.076-3.922
							C791.208,748.696,792.936,737.823,796.857,733.506z"/>
					</g>
				</g>
				<g id="XMLID_59_">
					<g>
						<path style="fill:#EAC5B0;" d="M794.401,655.318l0.362,31.613c-0.42,14.042,1.772,28.162,1.352,42.205
							c-0.097,3.229-0.938,6.635-0.125,9.835c0.796,3.131,3.339,3.684,5.951,2.099c3.498-2.124,2.935-7.084,3.517-10.703
							c1.601-9.944,3.478-19.841,5.15-29.773c0.82-4.869-0.87-11.693-0.502-16.621c0-0.003,5.107-26.494,5.107-26.494
							L794.401,655.318z"/>
					</g>
				</g>
			</g>
			<g id="XMLID_57_">
				<g>
					<polygon style="fill:#F7F7F7;" points="827.788,601.505 814.029,662.624 811.107,720.341 789.29,719.852 783.357,558.406 
						825.65,559.174 					"/>
				</g>
			</g>
			<g id="XMLID_52_">
				<g id="XMLID_54_">
					<g id="XMLID_56_">
						<g>
							<path style="fill:#3B3387;" d="M765.651,732.357c1.224-1.223,2.618-1.847,4.148-1.513c1.47,0.321,2.758,1.407,3.311,2.791
								c0.377,0.943,0.421,1.973,0.461,2.98c0.205,5.212-0.359,17.525-7.316,18.891c-2.923,0.573-5.228-1.631-5.888-4.284
								C759.372,747.226,761.559,736.446,765.651,732.357z"/>
						</g>
					</g>
					<g id="XMLID_55_">
						<g>
							<path style="fill:#EAC5B0;" d="M777.15,659.756l-1.851,31.562c-0.151,8.771-1.32,17.474-2.228,26.186
								c-0.843,8.092,0.469,16.521-3.76,23.881c-1.326,2.308-4.007,3.844-5.88,1.041c-1.444-2.161-0.586-5.766-0.863-8.217
								c-1.13-10.007-2.539-19.981-3.741-29.98c-0.589-4.902,1.42-11.64,1.285-16.579c0-0.003-3.853-26.703-3.853-26.703
								L777.15,659.756z"/>
						</g>
					</g>
				</g>
				<g id="XMLID_53_">
					<g>
						<polygon style="fill:#F7F7F7;" points="746.809,597.768 745.034,657.097 754.344,717.093 776.537,717.757 775.557,652.826 
							787.3,598.979 791.243,563.733 756.029,559.579 						"/>
					</g>
				</g>
			</g>
			<g id="XMLID_51_">
				<g>
					<polygon style="fill:#D67086;" points="777.398,440.892 815.335,439.987 837.331,480.894 829.513,519.21 828.121,565.063 
						774.005,565.802 756.199,562.911 760.927,513.918 758.217,448.471 					"/>
				</g>
			</g>
			<g id="XMLID_50_">
				<g>
					<polygon style="fill:#D67086;" points="816.594,442.808 847.389,489.713 842.761,515.844 795.065,548.884 786.09,541.037 
						817.977,500.728 816.74,475.256 					"/>
				</g>
			</g>
			<g id="XMLID_45_">
				<g id="XMLID_49_">
					<g>
						<path style="fill:#EAC5B0;" d="M782.371,405.491c7.468-15.919,28.625-7.371,31.537,7.834
							c1.9,9.918-6.859,21.579-17.105,23.265c-0.084,0.373-1.179,3.602-1.213,3.901c-0.173,1.54-0.527,3.039-0.921,4.555
							c-0.147,0.565-8.674-2.047-9.624-2.342c-0.333-0.103-0.702-0.237-0.854-0.541c-0.292-0.585,1.476-5.012,1.606-5.612
							c0.153-0.709,0.305-1.418,0.458-2.127c-4.65-2.925-7.196-8.361-7.501-13.648C778.446,415.462,780.127,410.274,782.371,405.491
							z"/>
					</g>
				</g>
				<g id="XMLID_46_">
					<g id="XMLID_48_">
						<g>
							<path style="fill:#292949;" d="M798.219,392.087c1.042,1.314,1.323,3.021,1.489,4.649c0.099,0.972,0.167,1.974-0.138,2.893
								c-1.215,3.665-4.916,3.068-7.925,3.967c-3.711,1.109-7.068,3.525-9.396,6.474c-3.646,4.617-2.933,11.141-2.26,16.74
								c0.237,1.973,0.824,4.932-0.854,6.488c-1.705,1.581-5.183,0.934-6.904-0.16c-1.572-0.999-2.772-2.663-4.562-3.165
								c-1.895-0.531-4.594,0.036-5.301-1.831c-0.197-0.519-0.155-1.124-0.422-1.609c-0.902-1.64-3.746-0.14-5.133-1.377
								c-0.853-0.761-0.695-2.169-0.262-3.25c0.433-1.081,1.081-2.154,0.985-3.312c-0.082-0.995-0.702-1.841-1.041-2.774
								c-0.669-1.844-0.127-4.093,1.31-5.434c2.672-2.494,7.215-1.476,10.039-3.788c1.472-1.204,2.195-3.093,2.888-4.879
								c0.693-1.786,1.495-3.661,3.047-4.755c1.917-1.351,4.418-0.817,6.343-2.456c1.131-0.964,1.959-2.287,3.199-3.098
								c1.635-1.069,4.673-1.698,6.609-2.125C793.002,388.609,796.247,389.6,798.219,392.087z"/>
						</g>
					</g>
					<g id="XMLID_47_">
						<g>
							<path style="fill:#292949;" d="M809.18,419.957c-0.485,5.452-3.822,11.043-1.832,16.103c2.008,5.106,8.22,6.657,13.567,7.489
								c0.879,0.137,12.116,2.339,12.187,2.129c1.258-3.698,2.553-7.469,4.892-10.583c2.339-3.115,5.949-5.515,9.767-5.342
								c-1.074-0.308-1.482-1.707-1.233-2.823s0.943-2.072,1.398-3.12c1.118-2.577,0.645-5.776-1.164-7.867
								c-3.609-4.172-11.051-3.403-14.027-8.069c-1.845-2.893-1.175-6.729-1.942-10.101c-1.483-6.52-8.225-8.578-13.063-11.971
								c-5.108-3.583-10.045-5.777-16.426-5.408c-7.91,0.457-14.539,7.746-12.344,15.513c2.814,9.963,18.27,10.795,20.102,20.8
								C809.26,417.78,809.277,418.866,809.18,419.957z"/>
						</g>
					</g>
				</g>
			</g>
		</g>
		<g id="XMLID_43_">
			<g>
				<polygon style="fill:#F7F7F7;" points="804.113,440.675 792.344,457.309 786.811,456.856 777.59,439.987 				"/>
			</g>
		</g>
	</g>
	<g id="XMLID_41_">
		<g>
			<polygon style="fill:#EAC5B0;" points="785.849,546.22 786.055,552.619 774.76,556.731 768.251,551.799 768.246,544.349 
				774.531,543.999 774.728,542.361 776.786,541.037 			"/>
		</g>
	</g>
	<g>
		<g>
			<g>
				<g>
					<g>
						<g>
							<polygon style="fill:#353A85;" points="544.91,592.935 547.336,649.219 540.223,744.919 529.578,745.675 516.646,658.757 
								498.755,585.206 							"/>
						</g>
						<g>
							<polygon style="fill:#292949;" points="530.148,752.821 546.127,752.821 546.789,747.543 541.06,743.586 529.55,744.404 
															"/>
						</g>
					</g>
					<g>
						<g>
							<polygon style="fill:#353A85;" points="469.56,576.196 467.224,618.739 474.155,745.237 484.813,745.77 500.786,662.804 
								514.875,571.82 							"/>
						</g>
						<g>
							<polygon style="fill:#292949;" points="484.378,753.23 468.823,753.882 467.238,749.397 473.289,743.922 484.815,744.498 
															"/>
						</g>
					</g>
					<g>
						<g>
							<path style="fill:#F7F7F7;" d="M531.529,447.689l-33.258-3.563c0,0-18.502,1.977-31.056,45.917
								c-6.985,24.446-9.111,62.961-9.622,92.324c0.785,4.188,5.349,22.536,24.645,19.424c33.136-5.344,50.773-10.689,65.204-8.017
								c12.292,2.672,11.253-14.252,9.902-27.168l-4.898-39.962L531.529,447.689z"/>
						</g>
					</g>
					<g>
						<g>
							<path style="fill:#B97262;" d="M525.107,406.29c-8.383-1.848-17.011-3.504-25.402-1.842c-1.838,0.364-3.811,1.004-4.808,2.59
								c-0.386,0.615-0.591,1.324-0.779,2.025c-2.118,7.872-4.804,19.541,0.378,26.794c0.988,1.383,2.315,2.481,3.741,3.372
								c1.907,1.191,4.017,2.002,6.201,2.433c-0.452,1.957-1.08,3.873-1.877,5.717c1.919,2.894,10.871,3.24,12.526,0.466
								c0.093-2.401,0.185-4.801,0.278-7.201c1.09-0.44,2.143-0.975,3.131-1.626c3.826-2.52,6.347-6.344,7.811-10.622
								c1.594-4.658,3.838-9.086,5.294-13.834c0.531-1.73,0.949-3.704,0.039-5.267c-0.969-1.665-3.06-2.231-4.94-2.65
								C526.171,406.526,525.639,406.408,525.107,406.29z"/>
						</g>
						<g>
							<path style="fill:#292949;" d="M528.78,428.146c4.028-4.136,8.741-9.919,9.104-15.17c0.301-4.344-0.3-10.267-2.733-14.018
								c-2.277-3.51-8.1-5.438-11.563-7.472c-3.264-1.917-6.528-3.835-9.792-5.752c-0.679-0.399-1.377-0.805-2.152-0.939
								c-0.917-0.159-1.852,0.075-2.754,0.308c-7.715,1.994-15.429,3.988-23.144,5.982c-1.482,0.383-3.171,0.942-3.716,2.372
								c-0.332,0.87-0.137,1.842,0.062,2.751c0.876,4.005,2.557,8.098,2.974,12.156c0.64,3.203,0.518,6.07,2.858,8.411
								c2.203,2.205,5.135,3.408,6.897,6.107c1.272,1.948,1.762,4.295,2.759,6.397c4.518,9.525,22.808,6.987,29.139,0.909
								C527.365,429.568,528.062,428.883,528.78,428.146z"/>
						</g>
					</g>
				</g>
				<g>
					<polygon style="fill:#F7F7F7;" points="524.475,450.534 547.336,425.836 541.951,358.9 551.996,354.488 573.131,421.844 
						565.661,442.566 535.008,483.768 					"/>
				</g>
			</g>
			<g>
				<path style="fill:#B97262;" d="M549.846,355.432c0,0,0-6.03,0-6.126c0-2.236-5.629-7.458-7.06-9.332
					c-0.817-1.07-4.565,4.761-4.61,5.725c-0.078,1.645,2.293,5.168,2.945,6.876l-2.001,2.857l2.832,3.468L549.846,355.432z"/>
			</g>
		</g>
		<g>
			<g>
				<g>
					<path style="fill:#B97262;" d="M409.517,418.359c-1.542-2.211-2.703-9.262-1.136-11.711c3.616-5.652,5.616,2.974,6.978,5.801
						c0.844-0.776,1.637-1.551,2.596-2.138c0.879-0.538,2.299,9.049,1.779,10.269c-1.247,2.929-3.264,2.763-6.044,3.806
						C412.351,422.351,410.916,420.363,409.517,418.359z"/>
				</g>
			</g>
			<g>
				<polygon style="fill:#F7F7F7;" points="484.452,481.987 433.777,472.114 411.645,423.93 421.176,416.508 445.076,450.11 
					471.024,449.722 494.986,451.422 				"/>
			</g>
		</g>
	</g>
	<g>
		<g>
			<g>
				<path style="fill:#B97262;" d="M316.306,462.785c0,0,5.947-1,6.042-1.016c2.205-0.371,9.91-7.978,11.52-9.7
					c0.92-0.984-8.941-2.522-9.899-2.407c-1.635,0.196-4.716,3.119-6.292,4.044l-3.15-1.499l-2.95,3.367L316.306,462.785z"/>
			</g>
			<g>
				<g>
					<polygon style="fill:#3B3387;" points="161.605,739.329 160.762,745.885 173.032,754.127 180.431,748.414 174.718,741.015 
						162.448,732.772 					"/>
				</g>
				<g>
					<g>
						<polygon style="fill:#292949;" points="161.19,737.128 170.653,653.512 159.268,559.904 161.828,539.991 212.68,538.06 
							214.514,570.469 205.978,653.64 173.861,741.401 						"/>
					</g>
				</g>
				<g>
					<polygon style="fill:#EED5D5;" points="217.453,445.543 243.031,452.51 267.191,472.276 311.967,452.85 316.914,465.294 
						268.769,497.327 238.879,494.547 					"/>
				</g>
				<g>
					<g>
						<polygon style="fill:#292949;" points="249.992,547.43 250.126,631.81 233.142,740.433 220.917,740.311 214.197,639.859 
							198.469,539.318 						"/>
					</g>
					<g>
						<polygon style="fill:#3B3387;" points="220.936,745.467 234.09,752.209 240.766,745.665 234.222,738.989 221.002,738.857 
													"/>
					</g>
				</g>
				<g>
					<g>
						<path style="fill:#EED5D5;" d="M154.006,576.128c0.117-3.656,0.32-6.708,0.349-7.798c0.262-9.809,1.136-19.596,2.364-29.335
							c1.1-8.728,2.489-30.394,3.983-39.068c1.233-7.162,5.53-25.037,8.635-31.68c7.721-16.519,5.336-18.045,39.254-22.95
							c14.865-2.15,18.379,7.114,30.532,17.768c1.199,1.051,1.133,7.307,1.411,8.963c0.49,2.918,1.014,5.83,1.616,8.729
							c0.473,2.278,0.994,4.55,1.58,6.806l-0.001-0.001c0,0,10.202,46.429,16.949,56.289c6.747,9.86,20.685,23.646-2.631,32.063
							c-4.132,1.336-8.29,2.607-12.591,3.286c0,0-19.069-2.119-28.875-2.046c-9.032,0.067-18.101,0.982-26.98,2.513
							c-5.938,0.992-11.996,2.435-17.308,5.209c-5.067,2.647-8.725,6.54-13.866,9.281c-0.487,0.26-1.021,0.528-1.575,0.452
							C153.899,594.2,153.76,583.824,154.006,576.128z"/>
					</g>
				</g>
				<g>
					<path style="fill:#B97262;" d="M109.885,415.852c0,0,4.91-2.308,4.901-2.931c-0.009-0.623-0.641-9.432-0.641-9.432
						l-3.147-1.886l-1.26-3.775c0,0,3.773-6.294,3.143-8.181c-0.63-1.887-5.66,6.294-5.66,6.294l-1.886,5.035l-0.626,8.18
						L109.885,415.852z"/>
				</g>
				<g>
					<g>
						<path style="fill:#B97262;" d="M205.546,449.573c-1.388,1.311-5.16,2.787-9.672,2.447c-0.909-0.069-1.698-0.683-1.954-1.558
							c-0.72-2.456-1.274-4.961-1.658-7.492c-3.347-0.134-7.328-0.654-8.825-3.651c-0.472-0.944-0.612-2.013-0.746-3.06
							c-0.553-4.327-1.105-8.654-1.658-12.981c-0.191-1.496-0.379-3.04,0.019-4.495c0.7-2.553,3.044-4.297,5.404-5.496
							c6.023-3.06,13.38-3.812,19.594-1.16c1.654,0.706,3.251,1.674,4.327,3.115c1.659,2.221,1.837,5.178,1.952,7.948
							c0.106,2.557,0.212,5.113,0.317,7.67c0.122,2.941,0.04,6.351-2.268,8.177c-1.225,0.97-2.917,1.316-3.932,2.505
							C204.66,443.638,205.975,446.851,205.546,449.573z"/>
					</g>
					<g>
						<path style="fill:#353A85;" d="M229.676,397.313c0.31-1.218,0.679-2.415,1.147-3.575c1.014-2.513,2.494-4.855,3.121-7.491
							c0.627-2.636,0.159-5.804-2.048-7.376c-1.424-1.014-3.278-1.171-5.026-1.15c-5.761,0.069-11.496,1.715-16.416,4.714
							c-4.686,2.856-8.577,6.397-14.282,6.058c-5.36-0.318-8.608,1.48-13.083,4.818c-4.842,3.612-12.002,6.312-16.083,10.565
							c-1.704,1.776-2.795,4.067-3.467,6.435c-2.327,8.203,0.547,17.643,7.05,23.158c1.459,1.237,3.071,2.282,4.724,3.246
							c3.421,1.994,7.546,4.488,11.392,4.434c-0.886-3.183-6.821-12.255-5.192-15.588c2.586-5.289,11.727-6.53,16.811-6.985
							c5.546-0.497,11.32,1.764,16.724,0.966c3.889-0.574,8.07-3.853,10.639-6.743C228.856,409.228,228.546,401.759,229.676,397.313
							z"/>
					</g>
				</g>
				<g>
					<polygon style="fill:#EED5D5;" points="178.925,452.565 152.24,459.417 120.105,409.468 106.544,413.129 129.151,485.034 
						181.174,491.297 					"/>
				</g>
			</g>
		</g>
		<g>
			<path style="fill:#F7F7F7;" d="M189.893,435.364c-0.497-0.79-0.88-1.772-1.29-2.993c-1.376-4.099-2.868-8.121-4.005-12.301
				c-1.116-4.1-3.055-6.894-0.074-10.645c1.748-2.199,4.218-3.585,6.557-4.722c12.269-5.961,25.024-10.57,38.038-13.743
				c0.724-0.177,1.51-0.341,2.179,0.027c0.79,0.435,1.172,1.47,1.479,2.423c2.1,6.512,3.813,13.192,5.122,19.978
				c0.409,2.12-0.709,4.168-1.988,5.789c-1.567,1.986-4.059,2.46-6.424,3.449c-5.227,2.186-10.333,4.658-15.294,7.393
				c-3.34,1.841-6.713,3.629-9.968,5.59c-3.174,1.912-5.573,3.191-9.339,2.536C192.18,437.674,190.833,436.86,189.893,435.364z"/>
		</g>
		<g>
			<path style="fill:#292949;" d="M191.221,428.224c1.069,2.236,2.628,4.72,5.099,4.917c1.557,0.124,3.004-0.731,4.341-1.538
				c11.264-6.79,23.32-12.265,35.845-16.279c0.792-0.254,1.618-0.521,2.21-1.105c1.233-1.218,0.976-3.24,0.597-4.931
				c-1.31-5.834-3.023-11.577-5.123-17.175c-0.307-0.819-0.689-1.709-1.479-2.083c-0.669-0.317-1.455-0.175-2.179-0.023
				c-13.014,2.728-25.768,6.689-38.038,11.814c-3.644,1.522-8.097,3.575-7.725,8.232
				C185.252,416.095,188.629,422.805,191.221,428.224z"/>
		</g>
		<g>
			<polygon style="fill:#3B3387;" points="184.598,420.07 180.818,426.772 183.051,433.152 188.603,432.371 			"/>
		</g>
		<g style="opacity:0.61;">
			<path style="fill:#59595B;" d="M193.435,422.341c-0.922-2.774-1.843-5.548-2.764-8.321c-0.491-1.478-0.984-3.083-0.493-4.561
				c0.295-0.887,0.918-1.626,1.592-2.273c2.165-2.08,5.01-3.441,7.988-3.821c-1.193,2.189-2.385,4.379-3.577,6.568
				c-0.64,1.175-1.282,2.355-1.744,3.611c-1.009,2.742-1.116,5.721-1.212,8.642L193.435,422.341z"/>
		</g>
	</g>
	<g>
		<path style="fill:#D67086;" d="M777.59,439.987l-21.391,1.162c0,0-24.01,11.807-25.599,10.92
			c-1.588-0.886-27.533-52.831-27.533-52.831l-12.708,4.126l15.885,59.42l15.355,15.876l43.418-7.226L777.59,439.987z"/>
	</g>
	<g>
		<path style="fill:#EAC5B0;" d="M702.032,399.675c0,0,0-6.03,0-6.126c0-2.236-5.629-7.458-7.06-9.332
			c-0.817-1.07-4.565,4.761-4.611,5.725c-0.078,1.645,2.293,5.168,2.945,6.876l-2.001,2.857l2.831,3.468L702.032,399.675z"/>
	</g>
</g>
</svg>
